# xmcd CD database file
#
# Track frame offsets:
#	182
#	25382
#	45645
#	73085
#	102837
#	129697
#	145217
#	160042
#	177547
#	195492
#	203920
#
# Disc length: 2833 seconds
#
# Revision: 0
# Processed by: cddbd v1.5PL3 Copyright (c) Steve Scherf et al.
# Submitted via: CDex 1.50
#
DISCID=9f0b0f0b
DTITLE=Hasler * Bründl * Schipper - Listening to Löbering
DYEAR=1900
DGENRE=Jazz
TTITLE0=Song hollandaise
TTITLE1=Listening to Löbering
TTITLE2=Out of my mind
TTITLE3=Two spanish flies
TTITLE4=Seven signs
TTITLE5=Ark
TTITLE6=Freckles
TTITLE7=Lazy afternoon
TTITLE8=Nicaragua
TTITLE9=Thank you!!!
TTITLE10=Out of my mind, Part II
EXTD=
EXTT0=
EXTT1=
EXTT2=
EXTT3=
EXTT4=
EXTT5=
EXTT6=
EXTT7=
EXTT8=
EXTT9=
EXTT10=
PLAYORDER=
